<?xml version="1.0" encoding="UTF-8"?>
<svg id="Calque_2" data-name="Calque 2" xmlns="http://www.w3.org/2000/svg" viewBox="0 0 1069.8 607.76">
  <defs>
    <style>
      .cls-1 {
        fill: #fff;
      }
    </style>
  </defs>
  <g id="Calque_1-2" data-name="Calque 1">
    <g>
      <path class="cls-1" d="m351.02,0c-1.74.67-3.48,1.33-5.22,2,14.34,1.4,27.24,7.2,40.34,12.37,9.1,3.59,18.08,7.59,27.4,10.46,5.66,1.74,11.9,2.43,17.84,2.25,8.54-.25,12.32-3.72,13.72-12.09.89-5.3,4.21-4.2,7.49-4.16,3.68.04,4.14,2.29,4.13,5.37-.09,38.23-.08,76.47-.12,114.7-.01,10.41-.05,10.41-10.63,9.61-3.12-20.68-10.09-40.14-20.17-58.4-11.62-21.04-25.93-39.97-45.8-54.19-20.19-14.44-42.38-20.83-67.09-16.33-17.36,3.16-30.71,12.81-40.81,26.99-14.16,19.89-20.65,42.75-24.85,66.32-8.57,48.08-8.45,96.54-5.86,145.11,1.41,26.53,4.59,52.74,12.17,78.27,5.07,17.06,12.4,32.92,25.64,45.43,10.91,10.31,23.94,15.82,38.88,16.85,42.66,2.93,74.31-16.43,99.3-49.06,17.51-22.87,27.1-48.95,31.03-77.25.43-3.09.57-6.23,4.98-6.05,4.33.18,4.57,3.24,4.57,6.4.01,41.79,0,83.58,0,125.38,0,.68-.14,1.37-.21,2-7.77,1.33-7.53,1.23-10.46-5.59-1.52-3.53-3.73-6.89-6.2-9.85-4.89-5.88-11.09-8.3-18.55-5.04-5.7,2.49-11.45,4.94-16.87,7.96-30.78,17.22-63.77,24.03-98.82,21.01-60.95-5.25-104.55-37.12-133.27-89.42-48.84-88.95-26.05-198.11,38.59-262.65,22.49-22.46,49.07-38.2,80.66-44.49,4.74-.94,9.71-.71,15.78-1.09C304.89,1.65,302.27.83,299.65,0c17.12,0,34.25,0,51.37,0Z"/>
      <path class="cls-1" d="m0,504.72c.67,1.71,1.33,3.43,1.74,4.48,2.25-7.56,3.74-15.75,7.05-23.14,9.82-21.91,25.59-37.53,49.2-44.87,15.19-4.72,29.12-1.57,43,4.36,3.76,1.61,7.55,3.2,11.45,4.4,4.94,1.53,9.53,1.34,12.45-3.99.51-.94,1.82-1.44,3.62-2.8v55.63c-.6.15-1.2.3-1.79.45-1.2-2.77-2.68-5.47-3.56-8.34-4.47-14.54-11.22-27.71-23.21-37.53-9.18-7.51-19.43-11.67-31.67-8.55-8.52,2.18-14.49,7.43-18.66,14.82-6.44,11.4-8.65,24.07-9.71,36.81-2.05,24.66-2.28,49.34,2.84,73.76.8,3.8,1.88,7.6,3.31,11.2,6.79,17.15,19.82,23.85,37.97,19.93,17.23-3.72,27.72-15.28,34.96-30.23,2.83-5.85,4.21-12.4,6.29-18.61.66-1.96,1.47-3.86,2.33-6.09,3.53,4.48,4.15,48.23.9,58.88-1.88-2.67-3.43-4.82-4.92-7.03-2.7-3.99-5.77-4.75-10.47-2.77-9.61,4.05-19.26,9.16-29.37,10.7-41.38,6.29-69.98-20.38-79.07-52.16-1.29-4.51-.18-9.69-1.16-14.6C2.34,542.45,1.17,545.46,0,548.47c0-14.58,0-29.17,0-43.75Z"/>
      <path class="cls-1" d="m629.33,382.25v-6.55c0-116.46,0-232.92,0-349.38q0-7.16-7.26-7.16c-9.81-.01-19.62,0-29.42-.07-8.68-.06-9.03-.54-7.5-10.24,1.75-.08,3.63-.24,5.51-.24,67.05-.01,134.1-.37,201.15.16,28.85.23,57.31,4.38,83.29,18.11,27.96,14.79,42.64,38.5,46.36,69.74,5.78,48.52-19.8,85.39-62.65,105.96-27.22,13.07-56.25,17.8-86.07,17.97-17.26.1-34.53-1.07-51.77-2.13-4.55-.28-5.44,1.09-5.42,5.16.18,51.56.27,103.12.24,154.67,0,3.64,1.56,4.01,4.49,4,14.44-.06,28.89.18,43.33-.05,4.29-.07,5.68,1.57,5.86,5.51.19,4.21-1.95,4.97-5.6,4.97-57.96-.07-115.91-.08-173.87,0-3.88,0-5.57-1.21-5.55-5.13.02-3.96,1.31-5.53,5.71-5.41,12.8.34,25.62.12,39.18.12Zm86.35-269.15s.01,0,.02,0c0,29.69.07,59.38-.08,89.07-.02,4.02,1.24,6.12,5.28,6.22,12.06.29,24.17,1.4,36.16.64,35.98-2.3,61.18-23.31,68.78-57.28,6.62-29.58,5.64-59.44-.42-88.9-5.77-28.04-21.38-41.18-50.02-42.88-18.48-1.1-37.07-.54-55.6-.87-3.38-.06-4.18,1.27-4.17,4.41.09,29.87.06,59.73.06,89.6Z"/>
      <path class="cls-1" d="m1035.31,602.42c-1.94.45-3.87,1.29-5.81,1.3-20.87.12-41.73.18-62.6.03-1.63-.01-3.25-1.71-4.87-2.63,1.55-.8,3.07-1.67,4.67-2.35.61-.26,1.41-.08,2.12-.1q11.52-.25,11.52-12.04c0-10.67.3-21.35-.13-32-.2-4.83-1.1-9.94-3-14.35-12.99-29.98-26.28-59.83-39.68-89.63-.74-1.65-3.23-3.5-4.97-3.56-5.12-.17-10.33.12-15.39.96-7.87,1.3-11.76,6.28-11.81,14.68-.13,21.87-.11,43.75-.13,65.62-.02,23.65.03,47.3-.13,70.95-.01,2.19-.85,5.88-2.11,6.27-3.46,1.08-7.19,1.06-10.02-2.66-9.79-12.9-19.86-25.58-29.76-38.4-23.49-30.42-46.93-60.88-70.42-91.3-.88-1.14-2.11-2.03-4.13-3.94,0,4.84,0,8.3,0,11.75-.02,33.97-.04,67.93-.07,101.9-.01,12.29,2.94,15.29,15.2,16.02,1.7.1,3.31,1.67,4.96,2.56-1.58.76-3.16,2.18-4.75,2.19-32.1.15-64.2.15-96.3.09-1.71,0-3.42-.86-6.35-1.65,6.3-5.71,13.17-1.73,19.23-4.41-.4-1.62-.67-3.31-1.23-4.9-4.33-12.39-8.6-24.8-13.25-37.07-.58-1.53-3.31-3.13-5.08-3.17-11.76-.26-23.53-.02-35.3-.14-3.66-.04-5.78.79-6.98,4.77-2.85,9.51-6.56,18.76-9.49,28.24-2.94,9.53-.34,12.81,9.54,13.42,2.54.16,5.03.97,8.16,1.61-4.86,4.36-39,4.77-45.77.7,2.57-1.03,4.51-2.23,6.58-2.56,7.87-1.23,11.91-6.26,14.43-13.29,7.06-19.71,14.24-39.38,21.42-59.04,9.87-27,19.76-54,29.71-80.97.88-2.39,2.2-4.62,4.04-8.41,1.95,3.92,3.38,6.28,4.36,8.81,18.71,48.53,37.45,97.05,55.91,145.68,2.06,5.43,4.41,8.08,10.65,7.46,8.11-.81,11.12-2.14,12.76-8.77.93-3.75,1.25-7.73,1.26-11.6.12-35.39-.29-70.78.43-106.16.18-8.61-1.78-15.34-7.54-21.06-2.78-2.76-6.45-4.63-10.18-7.22,1.37-.34,2.6-.89,3.83-.9,13.37-.11,26.75-.25,40.12-.05,2.18.03,5.1,1.14,6.38,2.77,25.55,32.43,50.91,65,76.3,97.56,2.16,2.77,4.25,5.6,7.5,8.28,0-3.08,0-6.16,0-9.24-.04-27.2-.07-54.41-.12-81.61-.01-7.76-2.79-11.04-10.63-12.86-3.14-.73-6.24-1.66-9.35-2.5.1-.58.2-1.15.31-1.73h112.39l.18,1.68c-4.23,3.65-10.07.04-15.92,2.88,12.2,27.72,24.38,55.38,36.95,83.93,8.83-19.71,17.03-37.78,25.02-55.94,2.35-5.34,4.53-10.82,6.08-16.44,2.1-7.63-.52-10.83-8.39-11.92-2.81-.39-5.52-1.46-8.28-2.23.1-.67.21-1.34.31-2.01,1.31-.27,2.63-.76,3.94-.77,11.23-.04,22.47-.06,33.7.1,1.51.02,3,1.13,4.5,1.73-1.28.95-2.53,1.94-3.84,2.85-3.54,2.44-8.43,4.07-10.41,7.42-5.23,8.81-9.34,18.29-13.63,27.63-7.93,17.26-15.74,34.58-23.41,51.96-1.25,2.83-2.06,6.11-2.07,9.19-.1,16.71.21,33.43.12,50.15-.02,3.93,1.57,4.78,5.08,4.79,4.56.01,9.12.56,13.68.88,0,.92,0,1.84,0,2.77Zm-332.6-55.23c-6.35-18.51-12.45-36.28-18.55-54.04-.69-.1-1.38-.19-2.07-.29-6.37,17.95-12.74,35.89-19.29,54.33h39.9Z"/>
      <path class="cls-1" d="m438.74,598.74v-140.01c-.36-.13-.72-.27-1.08-.4-1.44,3.57-3.01,7.09-4.29,10.71-15.23,43.17-30.37,86.37-45.73,129.5-.75,2.1-3.27,3.57-4.96,5.34-1.81-2.19-4.4-4.09-5.3-6.6-12.74-35.59-25.3-71.24-37.8-106.91-3.87-11.05-7.44-22.2-11.17-33.29-.26-.78-.76-1.49-2.38-2.22-.23,1.93-.65,3.85-.66,5.78-.06,41.07-.16,82.13-.02,123.2.03,10.24,3.99,14,14.05,15.02,2.32.24,4.6.96,6.9,1.46.02.66.04,1.32.05,1.98-2.4.49-4.8,1.36-7.21,1.4-11.76.21-23.53.27-35.3.15-1.34-.01-2.66-1.53-3.99-2.35,1.26-.97,2.47-2.7,3.8-2.79,9.21-.64,14.17-6.02,14.2-17.19.13-43.01.09-86.03.29-129.04.02-4.64-1.8-5.76-6-5.57-3.8.17-7.62-.31-11.43-.51-.02-.77-.04-1.54-.07-2.3,1.71-.37,3.42-1.06,5.13-1.06,16.4-.08,32.81.04,49.21-.11,3.94-.04,5.82,1.09,7.2,5.13,11.28,33.08,22.9,66.05,34.42,99.05.51,1.45,1.16,2.86,2.2,5.39,2.9-8.41,5.39-15.69,7.92-22.95,9.57-27.48,19.2-54.94,28.67-82.45,1.13-3.27,2.85-4.34,6.24-4.3,15.51.2,31.02.12,46.53.32,1.6.02,3.19,1.25,4.79,1.92-1.61.65-3.21,1.83-4.84,1.87-12.02.3-12.4.23-12.41,12.22-.03,44.8.26,89.59.28,134.39,0,4.35,1.54,5.7,5.68,5.21,2.46-.29,5.04-.32,7.46.11,1.48.27,2.77,1.63,4.14,2.5-1.35.81-2.66,2.22-4.06,2.32-4.61.34-9.26.24-13.9.24-16.76.01-33.52.08-50.27-.13-1.77-.02-3.52-1.73-5.28-2.65,1.69-.79,3.35-2.14,5.09-2.27,4.39-.33,8.82-.11,13.88-.11Z"/>
      <path class="cls-1" d="m294.64,519.51c-1.63,37.69-14.96,63.91-44.69,80.29-22.84,12.58-45.53,9.81-65.86-5.09-26.72-19.59-38.34-46.81-35.59-79.93,1.67-20.09,8.5-38.11,22.27-53.05,15.12-16.4,34.25-25.02,56.4-22.56,31.31,3.47,51.3,22.46,61.46,51.42,3.71,10.56,4.65,22.08,6.01,28.93Zm-38.86,10.9c-.88-18.03-1.02-30.67-2.24-43.2-1.09-11.11-3.52-21.91-9.33-31.93-9.26-15.99-40.43-15.72-47.46,2.82-2.32,6.12-5.04,12.24-6.21,18.61-4.61,25.16-4.41,50.56-2.71,75.98.82,12.27,2.31,24.43,8.12,35.58,7.89,15.14,31.5,19.33,44.38,7.96,6.65-5.87,9.98-13.65,11.08-21.93,2.16-16.33,3.32-32.78,4.38-43.9Z"/>
      <path class="cls-1" d="m506.26,443.84c1.83-.28,3.67-.8,5.5-.8,28.7.01,57.4-.09,86.1.24,12.81.15,25.41,2.54,35.67,10.79,22.91,18.44,18.43,53.47-8.54,68.16-10.96,5.97-22.77,9.04-35.33,9.02-7.84,0-15.69.23-23.53-.04-3.64-.13-4.6,1.15-4.58,4.55.15,19.55.19,39.09.13,58.64-.01,3.64,1.53,4.55,4.89,4.35,4.08-.25,8.21-.21,12.29.05,2.05.13,4.05,1.04,6.08,1.6-.02.66-.04,1.31-.06,1.97-1.89.47-3.77,1.35-5.67,1.36-23,.13-45.99.17-68.99.07-1.44,0-2.87-1.35-4.31-2.07,1.43-.98,2.79-2.68,4.29-2.81,4.4-.38,8.86-.14,13.88-.14.14-2.33.35-4.2.35-6.08.04-46.39-.05-92.79.21-139.18.03-5.6-1.59-7.16-6.94-6.64-3.77.37-7.64-.32-11.47-.54,0-.83.01-1.66.02-2.5Zm103.63,40.74c-1.12-7.54-1.92-14.93-3.39-22.2-1.43-7.07-6.17-11.97-13.19-13.08-9.26-1.46-18.7-1.88-28.08-2.32-1.13-.05-3.42,2.56-3.44,3.95-.27,23.96-.32,47.92-.14,71.87,0,1.22,2.44,3.45,3.77,3.47,6.34.08,12.81.21,19.02-.89,11.52-2.03,19.24-9.1,22.19-20.4,1.73-6.63,2.2-13.58,3.25-20.41Z"/>
      <path class="cls-1" d="m493.6,366.07c.24-17.75,14.51-31.82,32.11-31.65,17.74.17,32.81,15.14,32.42,32.2-.4,17.52-15.42,32.27-32.69,32.1-17.68-.17-32.08-14.94-31.84-32.66Z"/>
      <path class="cls-1" d="m812.67,366.25c.11-17.26,14.53-31.81,31.53-31.83,18.31-.02,32.76,14.08,32.94,32.15.17,17.3-14.7,31.98-32.52,32.09-17.69.12-32.07-14.47-31.95-32.41Z"/>
    </g>
  </g>
</svg>